Coordinates
version=1
nRows=22
nColumns=33
inDegrees=yes

Units are S.I. units (second, meters, Newtons, ...)
Angles are in degrees.

endheader
time	ground_thorax_rot_x	ground_thorax_rot_y	ground_thorax_rot_z	ground_thorax_tx	ground_thorax_ty	ground_thorax_tz	clav_prot_r	clav_elev_r	scapula_abduction_r	scapula_elevation_r	scapula_upward_rot_r	scapula_winging_r	shoulder_elv_r	plane_of_elev_r	axial_rot_r	elbow_flexion_r	pro_sup_r	wrist_flex_r	wrist_dev_r	clav_prot_l	clav_elev_l	scapula_abduction_l	scapula_elevation_l	scapula_upward_rot_l	scapula_winging_l	shoulder_elv_l	plane_of_elev_l	axial_rot_l	elbow_flexion_l	pro_sup_l	wrist_flex_l	wrist_dev_l	
4.3800	38.740237	-3.317519	1.247465	-10.198496	811.781687	-1.776287	11.693010	40.594149	45.000000	38.949901	-8.903415	-3323.275142	-6778.725999	30.791187	58.578975	3610.198777	370.904850	17.193947	11.325340	4.741584	-45.000000	-44.999999	45.000000	-13.120928	2246.393165	-3530.923515	20.685764	-39.495853	1806.811475	19.416210	11.260308	-19.000451	
4.3900	38.591778	-3.177531	1.499272	-8.101944	810.062312	-1.333286	11.780075	40.302483	44.999999	38.675413	-9.171468	-3323.134901	-6778.831958	30.751696	59.328141	3610.083820	371.297116	17.118464	11.322097	4.749226	-45.000000	-44.999999	45.000000	-13.358510	2246.244683	-3531.017513	20.776033	-39.271190	1806.592137	19.905919	11.151663	-18.904267	
4.4000	38.453665	-3.078005	1.700412	-6.156429	808.428492	-0.915449	11.868717	40.049576	44.999999	38.417665	-9.369364	-3322.968701	-6778.912425	30.671186	60.033753	3609.974901	371.701395	17.048647	11.333384	4.736821	-45.000000	-44.999998	45.000000	-13.522124	2246.078017	-3531.091527	20.826925	-39.031161	1806.397489	20.381073	11.059517	-18.825230	
4.4100	38.311364	-2.993687	1.888250	-4.528927	806.990689	-0.548721	11.908912	39.778314	44.999998	38.151471	-9.513538	-3322.854640	-6778.990204	30.578797	60.772041	3609.885792	372.103874	16.997681	11.365361	4.706912	-45.000000	-44.999997	45.000000	-13.644648	2245.953232	-3531.143180	20.864269	-38.793335	1806.227713	20.890793	10.964719	-18.751700	
4.4200	38.189040	-2.955514	2.022691	-3.247245	805.745781	-0.236136	11.914111	39.554706	44.999996	37.914445	-9.580319	-3322.778248	-6779.066850	30.476317	61.479968	3609.812823	372.528096	16.963755	11.404599	4.663906	-45.000000	-44.999995	45.000000	-13.709926	2245.850365	-3531.182142	20.887071	-38.569089	1806.083622	21.395885	10.890625	-18.697232	
4.4300	38.088653	-2.958170	2.113250	-2.357929	804.702929	0.018463	11.890351	39.374252	44.999993	37.709443	-9.590770	-3322.731352	-6779.129750	30.361796	62.147734	3609.764127	372.994540	16.950826	11.459985	4.611708	-45.000000	-44.999991	45.000000	-13.713992	2245.783559	-3531.218848	20.891374	-38.354905	1805.967662	21.868947	10.833431	-18.659827	
4.4400	38.028121	-3.009938	2.150263	-1.865572	803.839628	0.220125	11.846991	39.272954	44.999988	37.561247	-9.552973	-3322.722566	-6779.195437	30.257349	62.735311	3609.727864	373.526400	16.953878	11.504161	4.559832	-45.000000	-44.999983	45.000000	-13.694122	2245.737650	-3531.256523	20.890743	-38.181440	1805.866984	22.283877	10.808857	-18.646063	
4.4500	37.998703	-3.088756	2.162406	-1.753130	803.120065	0.379272	11.803048	39.219454	44.999978	37.456437	-9.515384	-3322.733754	-6779.242206	30.160023	63.242314	3609.712132	374.140734	16.973834	11.548789	4.517439	-45.000000	-44.999970	45.000000	-13.655853	2245.727445	-3531.302822	20.879490	-38.046488	1805.782422	22.611204	10.807281	-18.651198	
4.4600	38.001045	-3.184353	2.159049	-1.999957	802.510788	0.507934	11.764598	39.217844	44.999961	37.396105	-9.497735	-3322.792458	-6779.300421	30.094466	63.655934	3609.697436	374.836683	17.000882	11.554859	4.487475	-45.000000	-44.999946	45.000000	-13.666092	2245.739043	-3531.337992	20.874980	-37.994883	1805.709134	22.852128	10.833180	-18.679715	
4.4700	38.016009	-3.271802	2.176167	-2.584646	801.981794	0.617883	11.744777	39.216504	44.999931	37.351437	-9.540076	-3322.869026	-6779.337602	30.039281	64.013026	3609.693423	375.606478	17.036610	11.556424	4.475440	-45.000000	-44.999904	45.000000	-13.704499	2245.792718	-3531.369167	20.859786	-38.011256	1805.653258	23.007759	10.860982	-18.721236	
4.4800	38.050535	-3.351961	2.208126	-3.487607	801.507376	0.719063	11.741203	39.238850	44.999876	37.336314	-9.642271	-3322.966047	-6779.372855	29.995131	64.312387	3609.684773	376.434916	17.074707	11.524473	4.479854	-45.000000	-44.999828	45.000000	-13.806952	2245.858285	-3531.382373	20.833924	-38.128371	1805.617723	23.100898	10.894147	-18.782056	
4.4900	38.090124	-3.415783	2.269125	-4.692933	801.066423	0.818706	11.762524	39.248387	44.999778	37.327255	-9.821216	-3323.074148	-6779.380557	29.954644	64.586152	3609.685744	377.298018	17.116702	11.490859	4.507704	-45.000000	-44.999692	45.000000	-13.937409	2245.962405	-3531.392299	20.796168	-38.326004	1805.604828	23.149522	10.917505	-18.856015	
4.5000	38.145827	-3.469981	2.351403	-6.189011	800.642755	0.920896	11.796503	39.278174	44.999603	37.349960	-10.066530	-3323.193452	-6779.387207	29.911877	64.834505	3609.685421	378.166536	17.157238	11.422260	4.548527	-45.000000	-44.999448	45.000000	-14.127407	2246.077581	-3531.384310	20.741182	-38.619822	1805.622823	23.183841	10.932521	-18.947016	
4.5100	38.211037	-3.508610	2.469781	-7.968360	800.225043	1.026644	11.858715	39.298636	44.999289	37.390056	-10.393865	-3323.314226	-6779.371036	29.865346	65.082604	3609.692128	379.016936	17.195582	11.356177	4.614123	-45.000000	-44.999011	45.000000	-14.349425	2246.228817	-3531.382748	20.671083	-38.973922	1805.666082	23.225588	10.926464	-19.044542	
4.5200	38.291280	-3.535941	2.610739	-10.026706	799.806681	1.134176	11.937988	39.332547	44.998727	37.459917	-10.789754	-3323.443900	-6779.351903	29.815458	65.326612	3609.695080	379.825782	17.227782	11.267706	4.695761	-45.000000	-44.998229	45.000000	-14.630646	2246.390733	-3531.374986	20.590086	-39.387027	1805.731169	23.299037	10.904622	-19.149256	
4.5300	38.370368	-3.546784	2.783975	-12.361655	799.385165	1.239491	12.051316	39.356546	44.997718	37.530001	-11.262010	-3323.597085	-6779.320080	29.777104	65.577911	3609.700127	380.570186	17.250935	11.177606	4.803744	-45.000000	-44.996827	45.000000	-14.955368	2246.591877	-3531.368167	20.512634	-39.826990	1805.807482	23.416738	10.867649	-19.254330	
4.5400	38.452379	-3.547717	2.976035	-14.971721	798.961516	1.337052	12.181615	39.391290	44.995915	37.614632	-11.780898	-3323.764274	-6779.293050	29.730010	65.853985	3609.704447	381.233272	17.267268	11.073665	4.930201	-45.000000	-44.994319	45.000000	-15.334115	2246.809354	-3531.354017	20.432216	-40.283153	1805.897622	23.585980	10.815073	-19.357524	
4.5500	38.530578	-3.500562	3.242695	-17.855311	798.539477	1.420466	12.369679	39.424837	44.992678	37.710353	-12.444865	-3323.934677	-6779.257046	29.693910	66.158500	3609.710995	381.813504	17.273687	10.963462	5.105983	-45.000000	-44.989818	45.000000	-15.810047	2247.059659	-3531.340822	20.342221	-40.733695	1805.999110	23.808461	10.746877	-19.451219	
4.5600	38.610680	-3.412306	3.566713	-21.010156	798.124970	1.483535	12.600739	39.456946	44.986896	37.832732	-13.242267	-3324.100406	-6779.222064	29.664033	66.488687	3609.717941	382.308043	17.273518	10.838487	5.322207	-45.000000	-44.981775	45.000000	-16.395511	2247.326196	-3531.328514	20.249543	-41.175501	1806.105778	24.076809	10.674761	-19.535865	
4.5700	38.683232	-3.269223	3.973548	-24.432019	797.725071	1.520435	12.884312	39.475016	44.976492	37.973140	-14.211497	-3324.251338	-6779.175306	29.646331	66.834215	3609.733186	382.713326	17.269602	10.710324	5.586445	-45.000000	-44.967315	45.000000	-17.100329	2247.628468	-3531.319766	20.155985	-41.601112	1806.213127	24.373697	10.605021	-19.609909	
4.5800	38.753397	-3.104061	4.417256	-28.114166	797.347110	1.525973	13.182928	39.475651	44.957989	38.139322	-15.268437	-3324.376964	-6779.125277	29.619023	67.192539	3609.754305	383.021915	17.267895	10.593358	5.875712	-45.000000	-44.941559	45.000000	-17.889874	2247.952014	-3531.317533	20.068237	-42.014879	1806.316184	24.669754	10.539316	-19.672514	
4.5900	38.815459	-2.897122	4.924493	-32.046512	796.997388	1.494896	13.501706	39.462534	44.924469	38.327909	-16.453956	-3324.465504	-6779.061066	29.589300	67.546863	3609.780119	383.237440	17.268172	10.493459	6.195747	-45.000000	-44.895015	45.000000	-18.780695	2248.298595	-3531.320429	19.975613	-42.424787	1806.414512	24.934859	10.475820	-19.720142	
